<svg xmlns="http://www.w3.org/2000/svg" xmlns:xlink="http://www.w3.org/1999/xlink" xml:space="preserve" version="1.1" style="shape-rendering:geometricPrecision;text-rendering:geometricPrecision;image-rendering:optimizeQuality;" viewBox="0 0 273 163.75" x="0px" y="0px" fill-rule="evenodd" clip-rule="evenodd"><defs><style type="text/css">
   
    .fil1 {fill:black}
    .fil0 {fill:black;fill-rule:nonzero}
   
  </style></defs><g><path class="fil0" d="M136 131c-54,0 -97,-28 -136,-63 38,-37 81,-68 136,-68 56,0 99,31 137,68 -39,35 -82,63 -137,63zm0 -14c38,0 77,-17 115,-50 -38,-35 -77,-52 -115,-52 -38,0 -76,17 -114,52 38,33 76,50 114,50z"/><path class="fil1" d="M136 23c24,0 43,19 43,43 0,23 -19,42 -43,42 -28,0 -48,-27 -40,-54 7,21 39,16 39,-6 0,-10 -8,-19 -17,-20 5,-3 12,-5 18,-5z"/></g><text x="0" y="146" fill="#000000" font-size="5px" font-weight="bold" font-family="'Helvetica Neue', Helvetica, Arial-Unicode, Arial, Sans-serif">Created by yasminvisible</text><text x="0" y="151" fill="#000000" font-size="5px" font-weight="bold" font-family="'Helvetica Neue', Helvetica, Arial-Unicode, Arial, Sans-serif">from the Noun Project</text></svg>