<?xml version="1.0" encoding="utf-8"?>
<!-- Generator: Adobe Illustrator 22.0.0, SVG Export Plug-In . SVG Version: 6.00 Build 0)  -->
<svg version="1.1"
	 id="Calque_1" xmlns:cc="http://creativecommons.org/ns#" xmlns:dc="http://purl.org/dc/elements/1.1/" xmlns:inkscape="http://www.inkscape.org/namespaces/inkscape" xmlns:rdf="http://www.w3.org/1999/02/22-rdf-syntax-ns#" xmlns:sodipodi="http://sodipodi.sourceforge.net/DTD/sodipodi-0.dtd" xmlns:svg="http://www.w3.org/2000/svg"
	 xmlns="http://www.w3.org/2000/svg" xmlns:xlink="http://www.w3.org/1999/xlink" x="0px" y="0px" viewBox="0 0 68 68"
	 style="enable-background:new 0 0 68 68;" xml:space="preserve">
<g transform="translate(0,-952.36218)">
	<path d="M16,952.4c-8.9,0-16,7.1-16,16v36c0,8.9,7.1,16,16,16h36c8.9,0,16-7.1,16-16v-36c0-8.9-7.1-16-16-16H16z M54,962.4
		c2.2,0,4,1.8,4,4c0,2.2-1.8,4-4,4c-2.2,0-4-1.8-4-4C50,964.2,51.8,962.4,54,962.4z M34,968.4c9.9,0,18,8.1,18,18s-8.1,18-18,18
		c-9.9,0-18-8.1-18-18S24.1,968.4,34,968.4z M34,972.4c-7.8,0-14,6.2-14,14s6.2,14,14,14c7.8,0,14-6.2,14-14S41.8,972.4,34,972.4z"
		/>
</g>
</svg>
