<?xml version="1.0" encoding="utf-8"?>
<!-- Generator: Adobe Illustrator 21.1.0, SVG Export Plug-In . SVG Version: 6.00 Build 0)  -->
<svg version="1.1" id="Calque_1" xmlns="http://www.w3.org/2000/svg" xmlns:xlink="http://www.w3.org/1999/xlink" x="0px" y="0px"
	 viewBox="0 0 300 300" style="enable-background:new 0 0 300 300;" xml:space="preserve">
<style type="text/css">
	.st0{fill:#FFFFFF;}
</style>
<g>
	<g sketch:type="MSPage">
		<g id="XMLID_1_">
			<g>
				<polygon class="st0" points="204.9,106.5 226.6,109.1 216.4,128.5 204.9,120.4 				"/>
				<polygon class="st0" points="204.9,163.4 208.7,156.2 213.4,164.9 204.9,170.9 				"/>
				<polygon class="st0" points="204.9,128.1 213.4,134.1 208.7,142.8 204.9,135.6 				"/>
				<polygon class="st0" points="198.6,199.7 198.6,221.6 178.2,213.7 184.7,201.4 				"/>
				<polygon class="st0" points="104,173.5 98.1,149.5 104,125.5 120.3,107.5 142.9,98.8 167.4,101.8 187.2,115.8 198.6,137.2 
					198.6,161.8 187.2,183.2 167.4,197.2 142.9,200.2 120.3,191.5 				"/>
				<polygon class="st0" points="188.4,104.4 198.6,105.7 198.6,116 192.1,111.5 				"/>
				<polygon class="st0" points="178.2,85.3 198.6,77.4 198.6,99.3 184.7,97.6 				"/>
				<polygon class="st0" points="172.3,211.4 163,207.9 169.7,203.2 177.1,202.3 				"/>
				<polygon class="st0" points="145.9,79.1 159.6,63.8 169.3,82 156.8,86.7 				"/>
				<polygon points="155.4,205 156.4,204.9 155.9,205.2 				"/>
				<polygon class="st0" points="149.7,89.5 142.1,92.4 134.7,91.5 141.6,83.8 				"/>
				<polygon class="st0" points="113.2,88.8 118.5,67.6 136.4,80.2 127,90.5 				"/>
				<polygon class="st0" points="113.2,210.2 127,208.5 136.4,218.8 118.5,231.4 				"/>
				<polygon class="st0" points="121.9,202.7 111.6,204 109.1,194 116.6,196.8 				"/>
				<polygon points="95,135.5 94.8,136.5 94.7,135.9 				"/>
				<polygon class="st0" points="82.5,149.5 89.6,141.6 91.6,149.5 89.6,157.4 				"/>
				<polygon class="st0" points="78.2,154.2 87.7,164.8 84.5,177.8 64.1,169.9 				"/>
				<path d="M218.6,161.3l16.8-11.8l-16.8-11.8l-6.3,11.8L218.6,161.3z M208.7,156.2l-3.8,7.2v7.4l8.5-5.9L208.7,156.2z
					 M216.4,170.5l-11.5,8v14l21.7-2.7L216.4,170.5z M226.6,109.1l-21.7-2.7v14l11.5,8L226.6,109.1z M213.4,134.1l-8.5-5.9v7.4
					l3.8,7.2L213.4,134.1z M198.6,105.7l-10.3-1.3l3.7,7l6.5,4.6V105.7z M184.7,97.6l13.9,1.7V77.4l-20.4,7.8L184.7,97.6z
					 M188.4,194.6l10.3-1.3V183l-6.5,4.6L188.4,194.6z M198.6,221.6v-21.9l-13.9,1.7l-6.6,12.3L198.6,221.6z M155.9,205.2l0.5-0.3
					l-1,0.1L155.9,205.2z M177.1,202.3l-7.4,0.9l-6.7,4.7l9.2,3.5L177.1,202.3z M159.6,63.8l-13.8,15.3l10.9,7.7l12.5-4.8
					L159.6,63.8z M156.8,212.3l-10.9,7.7l13.8,15.3l9.7-18.2L156.8,212.3z M111.6,204l10.3-1.3l-5.3-5.9l-7.4-2.9L111.6,204z
					 M113.2,210.2l5.3,21.2l17.9-12.6l-9.4-10.4L113.2,210.2z M118.5,67.6l-5.3,21.2l13.9,1.7l9.4-10.4L118.5,67.6z M82.5,149.5
					l7.1,7.9l2-7.9l-2-7.9L82.5,149.5z M102,191.2l-13-5l-5.3,21.2l21.7-2.7L102,191.2z M90.4,119l2.4,9.6l5.5-6.1l1.8-7.2L90.4,119
					z M105.3,94.2l-21.7-2.7l5.3,21.2l13-5L105.3,94.2z M95,163.5l-0.2-1l-0.1,0.5L95,163.5z M98.1,149.5l6,24l16.2,18l22.6,8.7
					l24.5-3l19.9-13.9l11.4-21.4v-24.7l-11.4-21.4l-19.9-13.9l-24.5-3l-22.6,8.7l-16.2,18L98.1,149.5z M100.1,183.7l-1.8-7.2
					l-5.5-6.1l-2.4,9.6L100.1,183.7z M64.1,129.1l14.1,15.7l9.5-10.6l-3.2-13L64.1,129.1z M76.9,208.3l6.1-24.3l-23.4-9l-7.5,8.3
					l-4.7-4.2l5.9-6.5l-7.6-2.9l2.3-5.9l9.9,3.8l16.2-18l-16.2-18l-9.9,3.8l-2.3-5.9l7.6-2.9l-5.9-6.5l4.7-4.2l7.5,8.3l23.4-9
					l-6.1-24.3l-10.8-1.3l0.8-6.2l8.4,1l-2.1-8.3l6.1-1.5L82,85l24.9,3.1l6.1-24.3l-9.1-6.4l3.6-5.2l7.1,5l2-8l6.1,1.5L120.1,61
					l20.5,14.4l15.8-17.6l-5.6-10.5l5.6-3l4.5,8.5l6.3-7l4.7,4.2l-7.9,8.7l11.1,20.9l23.4-9V59.9h6.3v8.4l8-3.1l2.3,5.9L204.9,75
					v25.1l24.9,3.1l5.2-9.8l5.6,3l-4.1,7.6l8.2,1l-0.8,6.3l-10.6-1.3l-11.8,22.2l19.4,13.6l9.7-6.8l3.6,5.2l-7.8,5.5l7.8,5.5
					l-3.6,5.2l-9.7-6.8l-19.4,13.6l11.8,22.2l10.6-1.3l0.8,6.3l-8.2,1l4.1,7.6l-5.6,3l-5.2-9.8l-24.9,3.1V224l10.3,3.9l-2.3,5.9
					l-8-3.1v8.4h-6.3v-10.8l-23.4-9l-11.1,20.9l7.9,8.7l-4.7,4.2l-6.3-7l-4.5,8.5l-5.6-3l5.6-10.5l-15.8-17.6L120.1,238l2.6,10.3
					l-6.1,1.5l-2-8l-7.1,5l-3.6-5.2l9.1-6.4l-6.1-24.3L82,214l-2.6,10.6l-6.1-1.5l2.1-8.3l-8.4,1l-0.8-6.2L76.9,208.3z M87.7,164.8
					l-9.5-10.6l-14.1,15.7l20.4,7.8L87.7,164.8z M94.8,136.5l0.2-1l-0.4,0.4L94.8,136.5z M198.6,123.7L198.6,123.7L198.6,123.7
					L198.6,123.7z M180.7,103.5L180.7,103.5L180.7,103.5L180.7,103.5z M177.1,96.7l-4.9-9.1l-9.2,3.5l6.7,4.7L177.1,96.7z M155.4,94
					l1,0.1l-0.5-0.3L155.4,94z M142.1,92.4l7.6-2.9l-8.1-5.7l-6.9,7.7L142.1,92.4z M116.6,102.2l5.3-5.9L111.6,95l-2.5,10
					L116.6,102.2z M107.3,112.5L107.3,112.5L107.3,112.5L107.3,112.5z M141.6,215.2l8.1-5.7l-7.6-2.9l-7.4,0.9L141.6,215.2z
					 M205.2,149.5l-0.3-0.5v1L205.2,149.5z"/>
			</g>
			<g>
			</g>
		</g>
	</g>
	<circle cx="148.7" cy="150.8" r="30.7"/>
</g>
</svg>
