<?xml version="1.0" encoding="utf-8"?>
<!-- Generator: Adobe Illustrator 22.0.0, SVG Export Plug-In . SVG Version: 6.00 Build 0)  -->
<svg version="1.1" id="Calque_1" xmlns="http://www.w3.org/2000/svg" xmlns:xlink="http://www.w3.org/1999/xlink" x="0px" y="0px"
	 viewBox="0 0 20.9 24.5" style="enable-background:new 0 0 20.9 24.5;" xml:space="preserve">
<style type="text/css">
	.st0{fill:#FFFFFF;stroke:#FFFFFF;stroke-width:0.5;stroke-miterlimit:10;}
</style>
<path class="st0" d="M18.3,24.2H2.7c-1.3,0-2.4-1.1-2.4-2.4V2.7c0-1.3,1.1-2.4,2.4-2.4h11.7c0.1,0,0.2,0.1,0.3,0.1l5.9,5.9
	c0.1,0.1,0.1,0.2,0.1,0.3v15.3C20.7,23.2,19.6,24.2,18.3,24.2z M2.7,1.2c-0.8,0-1.4,0.6-1.4,1.4v19.2c0,0.8,0.6,1.4,1.4,1.4h15.6
	c0.8,0,1.4-0.6,1.4-1.4V6.8l-5.6-5.6H2.7z"/>
<path class="st0" d="M20.2,7.1h-5.9c-0.3,0-0.5-0.2-0.5-0.5V0.7c0-0.3,0.2-0.5,0.5-0.5s0.5,0.2,0.5,0.5v5.4h5.4
	c0.3,0,0.5,0.2,0.5,0.5S20.5,7.1,20.2,7.1z"/>
<path class="st0" d="M16.3,12.8H4.7c-0.3,0-0.5-0.2-0.5-0.5c0-0.3,0.2-0.5,0.5-0.5h11.6c0.3,0,0.5,0.2,0.5,0.5S16.5,12.8,16.3,12.8z
	"/>
<path class="st0" d="M16.3,16.1H4.7c-0.3,0-0.5-0.2-0.5-0.5c0-0.3,0.2-0.5,0.5-0.5h11.6c0.3,0,0.5,0.2,0.5,0.5
	C16.7,15.9,16.5,16.1,16.3,16.1z"/>
<path class="st0" d="M16.3,19.3H4.7c-0.3,0-0.5-0.2-0.5-0.5s0.2-0.5,0.5-0.5h11.6c0.3,0,0.5,0.2,0.5,0.5S16.5,19.3,16.3,19.3z"/>
</svg>
