<?xml version="1.0" encoding="utf-8"?>
<!-- Generator: Adobe Illustrator 22.0.0, SVG Export Plug-In . SVG Version: 6.00 Build 0)  -->
<svg version="1.1"
	 id="Calque_1" xmlns:cc="http://creativecommons.org/ns#" xmlns:dc="http://purl.org/dc/elements/1.1/" xmlns:inkscape="http://www.inkscape.org/namespaces/inkscape" xmlns:rdf="http://www.w3.org/1999/02/22-rdf-syntax-ns#" xmlns:sodipodi="http://sodipodi.sourceforge.net/DTD/sodipodi-0.dtd" xmlns:svg="http://www.w3.org/2000/svg"
	 xmlns="http://www.w3.org/2000/svg" xmlns:xlink="http://www.w3.org/1999/xlink" x="0px" y="0px" viewBox="0 0 84 54"
	 style="enable-background:new 0 0 84 54;" xml:space="preserve">
<style type="text/css">
	.st0{fill:#FFFFFF;}
</style>
<g transform="translate(0,-952.36218)">
	<path class="st0" d="M4,952.4c-0.3,0-0.6,0.1-0.9,0.1l37.1,33.3c0.9,0.8,2.8,0.8,3.6,0l37.1-33.3c-0.3-0.1-0.6-0.1-0.9-0.1H4z
		 M0.2,955.3C0.1,955.6,0,956,0,956.4v46c0,0.4,0.1,0.7,0.2,1l26.7-24.2L0.2,955.3L0.2,955.3z M83.8,955.3l-26.7,23.9l26.7,24.2
		c0.1-0.3,0.2-0.7,0.2-1v-46C84,956,83.9,955.6,83.8,955.3L83.8,955.3z M29.9,981.9L3,1006.2c0.3,0.1,0.6,0.2,1,0.2h76
		c0.3,0,0.7-0.1,1-0.2l-26.8-24.3l-7.6,6.8c-2.5,2.3-6.5,2.3-9,0L29.9,981.9z"/>
</g>
</svg>
